<svg width="30" height="30" viewBox="0 0 30 30" fill="none" xmlns="http://www.w3.org/2000/svg">
<path d="M6.17494 27.412C2.93272 20.8183 1.00381 16.8363 1.00381 16.7375C1.00381 16.5762 1.20189 16.5986 3.1499 16.9778C6.57593 17.6454 8.40639 17.8338 11.4577 17.8349C15.4947 17.836 18.782 17.2014 21.3363 15.9263C22.6874 15.2516 23.5 14.6535 24.1656 13.8434C24.9853 12.8449 25.2487 12.1573 25.2582 10.9999C25.2664 9.89903 25.117 9.31854 24.4752 7.97153C24.2212 7.43924 23.9982 6.82826 23.9769 6.61389C23.9436 6.26889 23.9721 6.21944 24.2284 6.19C24.7884 6.12417 27.5524 8.78743 28.5704 10.3734C30.3249 13.1085 30.4673 16.0674 28.982 18.9286C28.0697 20.6865 27.0614 21.9028 25.3733 23.2851C22.5676 25.5811 19.3064 27.18 14.8031 28.4681C12.3843 29.1605 8.47293 30 7.66738 30C7.49666 30 7.1762 29.4442 6.17732 27.4109L6.17494 27.4119V27.412ZM7.07782 16.7786C3.9281 16.3736 1.28508 16.0215 1.20322 15.9956C1.06328 15.9509 0.562654 14.2931 0.280259 12.9437C0.2091 12.6023 0.104636 11.698 0.0477516 10.9328C-0.206236 7.51819 0.542363 5.15736 2.54845 3.03451C5.94481 -0.556598 13.2169 -0.993473 21.4215 1.90069C22.8616 2.40937 23.4335 2.76257 23.169 2.98271C22.9733 3.14521 21.647 3.14285 19.355 2.97562C15.7723 2.71424 13.045 3.20875 11.6392 4.37674C9.49903 6.15465 9.82537 10.052 12.5859 15.6741C12.8849 16.2828 13.1863 16.8786 13.255 16.9998C13.4153 17.2789 13.299 17.538 13.0202 17.525C12.9014 17.5194 10.2273 17.1839 7.07775 16.7788L7.07782 16.7786ZM17.6443 13.7198C15.1304 13.2712 12.8705 11.724 12.1409 9.95437C11.7909 9.10431 11.8075 7.99514 12.1812 7.33118C12.5193 6.73062 13.3924 6.03604 14.1742 5.74514C15.4756 5.26125 17.7545 5.45431 19.4154 6.19028C20.992 6.88854 22.3896 8.11653 22.9091 9.25861C23.5759 10.7245 23.0205 12.36 21.5923 13.1406C20.6455 13.6575 18.8056 13.9272 17.643 13.7199L17.6443 13.7198Z" fill="#62339C"/>
</svg>
